# xmcd
#
# Track frame offsets:
#	150
#	17575
#	29662
#	44625
#	61612
#	81525
#	96825
#	110337
#	130237
#	143425
#
# Disc length: 2162 seconds
#
# Revision: 1
# Processed by: cddbd v1.5.2PL0 Copyright (c) Steve Scherf et al.
# Submitted via: audiograbber 1.83.01
#
DISCID=8208700a
DTITLE=Kingfish - Tridnet
DYEAR=1976
DGENRE=Blues
TTITLE0=Hart To Love Somebaody
TTITLE1=Cheyenne
TTITLE2=Hurricane
TTITLE3=My Friend
TTITLE4=Magic Eyes
TTITLE5=Moving Down The Highway
TTITLE6=Hawaii
TTITLE7=You And I
TTITLE8=Feels So Good
TTITLE9=Take It To Hard
EXTD=
EXTT0=
EXTT1=
EXTT2=
EXTT3=
EXTT4=
EXTT5=
EXTT6=
EXTT7=
EXTT8=
EXTT9=
PLAYORDER=
